<?xml version="1.0" encoding="UTF-8"?>
<svg width="1200pt" height="1200pt" version="1.1" viewBox="0 0 1200 1200" xmlns="http://www.w3.org/2000/svg">
 <g>
  <path d="m470.87 1073.3s-0.89844-2.4961-3.0586-7.1406c-2.1953-4.6328-5.6758-11.375-11.004-19.703-5.3164-8.293-12.539-18.145-22.453-28.367-9.9102-10.141-22.547-20.688-38.375-29.531-15.816-8.8086-34.906-15.684-56.41-18.77-10.754-1.5469-21.984-2.1484-33.816-1.9062-12.238 0.26562-25.078-0.20312-38.281-1.8594-13.211-1.7539-26.879-4.4297-40.609-10.211-6.8164-2.9414-13.715-6.6953-19.969-12.289-1.5586-1.4141-3.0703-2.9414-4.4648-4.6328-0.71875-0.82812-1.4141-1.6914-2.0508-2.6172l-0.48047-0.67188c-0.22656-0.3125-0.22656-0.27734-0.60156-0.86328l-0.71875-1.1523c-1.3789-2.3398-2.1836-4.1172-3.0234-6.1562-0.81641-1.9688-1.5-3.9258-2.0898-5.8672-2.3516-7.8125-3.5039-15.504-4.3789-23.258-0.80469-7.7539-1.1875-15.527-1.2852-23.363-0.14453-15.73 0.58984-31.57 3.0586-48.156 0.66016-4.1875 1.3906-8.3633 2.7109-13.02 0.37109-1.1875 0.71875-2.3633 1.2734-3.7422 0.58984-1.4141 1.0664-2.8086 2.7461-5.1602 0.3125-0.49219 1.1172-1.3789 1.8125-2.0508l0.70703-0.64844 1.4297-1.2461c0.9375-0.78125 1.8125-1.4883 2.6875-2.1836l4.7383-3.707c0.67187-0.52734 1.2617-1.0312 1.6211-1.3906 0.35938-0.27734 0.45703-0.64844-0.22656 0.40625-0.34766 0.64844-1.0938 2.0039-1.0547 4.4648 0.046875 1.1992 0.33594 2.4609 0.82812 3.5039 0.43359 0.99609 1.0078 1.7656 1.4141 2.2188 0.52734 0.57422 0.67188 0.73047 1.0547 0.99609 0.14453 0.14453 0.42188 0.30078 0.48047 0.32422 0.035156 0.046876 0.17969 0.10938 0.14453 0.10938-0.023437 0-0.046875 0-0.070312-0.011719l-0.26562-0.097657-1.1289-0.40625-1.5-0.5625c-0.89844-0.37109-1.7773-0.81641-2.6523-1.2461-0.86328-0.44531-1.4883-0.875-2.2422-1.3438-2.8555-1.8477-5.4727-4.3555-7.4648-7.1758-2.0039-2.7734-3.3945-5.7969-4.3555-8.7109-0.94922-2.9023-1.4766-5.7461-1.7891-8.4102l-0.097656-0.99609c0 0.3125-0.097656-1.5469-0.097656-1.6211 0.085937-3 0.45703-3.7422 0.69531-4.8828 0.55078-1.9219 1.0781-3.2148 1.5859-4.4531 2.0156-4.7148 3.9375-8.3164 5.7461-12.098 1.8008-3.707 3.4688-7.2969 4.8477-10.801 1.3789-3.457 2.4258-6.9375 2.8086-9.6133 0.19141-1.332 0.17969-2.3984 0.085937-2.9297-0.12109-0.52734-0.15625-0.25391 0.085937 0.070313 0.23828 0.35938 0.39453 0.39453-0.13281 0.16797l-5.5312-1.8945c-4.2969-1.5234-8.6055-3.1211-12.898-4.8477-8.5938-3.4922-17.207-7.4023-25.789-12.445-4.2969-2.543-8.5781-5.3867-12.816-8.9023-4.1992-3.5156-8.4961-7.6797-12.059-13.848-1.7266-3.1094-3.2383-6.7812-3.8633-11.004-0.67188-4.1758-0.30078-8.7461 0.89844-12.719 1.1992-3.9961 3.0859-7.4023 5.1133-10.199 0.98437-1.4023 2.1836-2.8086 3.0859-3.8164l1.1055-1.2734 0.89844-1.0547c5.3164-6.4453 10.691-13.895 15.898-21.324 10.441-14.988 20.555-30.672 30.266-46.727 4.8477-8.0273 9.5742-16.176 14.102-24.406 4.5117-8.2188 8.8789-16.535 12.707-24.852 1.8945-4.1406 3.6484-8.293 5.0508-12.254 0.69531-1.9805 1.3086-3.8984 1.7266-5.6055 0.42188-1.6328 0.66016-3.3242 0.58984-3.5273-0.011719 0.011719 0-0.035156 0 0.011719-0.011719 0.097656 0 0.19141 0.011719 0.28906 0.011718 0.058594 0.023437 0.43359 0.097656 0.625 0.10938 0.43359 0.058594 0.19141-0.046875-0.19141l-0.94922-3.2266c-0.66016-2.1484-1.3789-4.3555-2.1367-6.6484-1.5234-4.6211-3.2383-9.6133-4.7031-15.238-1.4297-5.6172-2.5664-12-2.5312-18.77 0-6.7695 1.2734-13.738 3.4805-20.016 0.53906-1.5703 1.1523-3.1094 1.7891-4.5977 0.23828-0.57422-0.3125 0.74219 0.070312-0.22656 0.085938-0.22656 0.30078-0.76953 0.19141-0.57422-0.058593 0.011719-0.13281 0.38281 0.011719-0.25391 0.39453-1.6562 0.85156-4.0078 1.2969-6.3594 0.91016-4.9688 1.8242-9.9102 2.7461-14.891 3.8398-20.34 9.0234-41.027 16.094-61.211 7.1055-20.195 16.02-40.02 27.012-58.871 11.016-18.852 24.086-36.695 39.012-52.992 29.844-32.641 67.008-58.754 107.29-76.957 40.297-18.348 83.305-29.543 126.45-35.977l16.211-2.1367 8.125-0.875 4.0664-0.44531 2.0156-0.20312 2.1836-0.19141 7.9062-0.67188 3.9609-0.3125 4.1406-0.26562c5.5078-0.37109 11.027-0.70703 16.453-0.86328 21.77-0.89844 43.609-0.60156 65.352 1.0664 43.488 3.1328 86.566 11.902 127.43 26.328 10.234 3.5742 20.281 7.5703 30.191 11.93 9.8984 4.2969 19.621 9.0117 29.113 14.062 9.5391 5.0273 18.805 10.465 27.84 16.246 9.0469 5.7461 17.855 11.82 26.34 18.277 34.066 25.68 63.602 56.797 86.258 91.789 11.316 17.52 20.941 35.977 28.57 55.055 7.5703 19.117 13.141 38.902 16.285 58.934 6.5391 40.152 2.1367 80.578-8.7109 117-10.859 36.551-27.793 69.145-45.457 98.93-17.762 29.785-36.215 57.215-52.188 84.191-16.02 26.941-29.531 53.543-38.387 80.16-9 26.566-12.961 53.074-12.395 78.121 0.44531 25.691 1.5977 49.547 5.3047 71.062 1.8828 10.727 4.5117 20.867 7.7383 30.348 3.2383 9.4922 7.0195 18.324 10.992 26.566 7.9453 16.5 16.367 30.707 23.734 43.031 7.4023 12.301 13.969 22.633 19.273 31.008 10.703 16.727 16.391 25.645 16.391 25.645s-1.5977-2.125-4.668-6.2383c-3.0469-4.1172-7.6328-10.211-13.465-18.238-5.832-8.0273-13.031-17.93-21.254-29.785-8.1953-11.855-17.461-25.68-26.496-42.109-4.4883-8.207-8.8906-17.113-12.805-26.809-3.875-9.6836-7.2109-20.195-9.793-31.32-5.2188-22.273-7.1992-46.754-8.8789-72.574-1.8125-26.496 1.1758-55.246 9.5039-83.93 8.207-28.754 21.625-57.121 37.02-85.285 15.395-28.223 32.93-56.34 49.199-85.957 16.262-29.52 31.453-60.66 40.465-94.246 4.5-16.715 7.4648-34.105 8.4609-51.551 0.10938-2.1836 0.26563-4.1523 0.3125-6.5898l0.070313-3.5039 0.046875-1.7539-0.011719-1.4414c0.011719-4.3906-0.15625-8.7969-0.39453-13.211-0.51562-8.8203-1.6211-17.676-3.2539-26.484-3.2656-17.641-8.5195-35.137-15.59-52.129-7.1406-16.992-16.094-33.434-26.578-49.078-21.133-31.199-48.215-59.242-79.668-82.309-31.441-23.102-66.984-41.426-104.77-54.492-37.801-13.066-77.809-20.785-118.43-23.711-20.293-1.4883-40.754-1.7266-61.234-0.85156-5.1602 0.17969-10.188 0.51562-15.215 0.85156l-3.7812 0.23828-3.9492 0.33594-7.9062 0.67187-15.18 1.6328-15.238 2.0273c-40.523 5.9414-80.258 16.285-116.81 32.82-36.516 16.488-69.684 39.289-96.312 68.027-26.711 28.645-46.633 62.941-59.941 99.406-6.6484 18.289-11.641 37.031-15.504 56.23-0.98438 4.9219-1.957 9.8398-2.9297 14.746-0.50391 2.5664-1.0312 5.1367-1.8711 8.3398-0.13281 0.5625-0.58984 2.1367-1.0078 3.3594-0.26562 0.78125-0.30078 0.81641-0.44531 1.1875l-0.63672 1.5117c-0.35938 0.79297-0.68359 1.5859-0.97266 2.3633-2.3047 6.2539-2.4258 11.914-0.52734 20.016 0.94922 3.9961 2.3398 8.4258 3.8281 13.211 0.74219 2.3984 1.5 4.8945 2.2422 7.4766l1.043 3.8867c0.046875 0.20312 0.16797 0.5625 0.38281 1.6094 0.15625 0.79297 0.34766 1.7539 0.42187 2.4375 0.058594 0.70703 0.13281 1.4297 0.15625 2.1367 0.035157 0.67188 0.011719 1.2227 0 1.8359-0.13281 4.7539-0.94922 7.8945-1.7266 11.004-0.83984 3.0469-1.7656 5.7734-2.7461 8.3867-1.9805 5.2578-4.1289 10.043-6.3594 14.723-9 18.562-19.188 35.328-29.629 51.77-10.477 16.379-21.254 32.195-32.543 47.531-5.7109 7.7031-11.352 15.215-17.965 22.801l-1.3672 1.5469-1.1992 1.2969c-0.64844 0.70703-0.94922 1.0312-1.2969 1.5117-0.69531 0.86328-1.0195 1.5469-1.1758 1.957-0.13281 0.38281-0.16797 0.49219-0.14453 0.80469 0 0.3125 0.15625 0.94922 0.61328 1.8242 0.91016 1.7773 3.0117 4.2734 5.6758 6.5625 2.6641 2.3281 5.8438 4.5703 9.2031 6.6719 6.793 4.2344 14.34 7.9062 22.031 11.23 3.8516 1.6562 7.7656 3.2266 11.711 4.7266l2.9297 1.0938 1.5352 0.5625 1.0312 0.37109c0.44531 0.19141 0.875 0.34766 1.2969 0.52734 3.4688 1.5234 7.3672 4.0664 10.211 7.9219 2.8672 3.8164 4.2734 8.3281 4.6914 12.086 0.40625 3.8047 0.12109 7.0664-0.39453 9.9961-1.0312 5.832-2.8672 10.559-4.7383 14.977-1.9062 4.4141-3.9844 8.4609-6.0234 12.312-1.9805 3.8047-4.1172 7.6445-5.4961 10.609-0.3125 0.69531-0.5625 1.3555-0.625 1.4414-0.011718-0.12109 0.097657 0.16797 0.14453-1.7656-0.011719 0.42188-0.058594-0.89844-0.011719-0.085938l0.035156 0.58984c0.13281 1.5117 0.33594 2.7852 0.63672 3.8516 0.63672 2.1602 1.3203 3.0703 2.3867 3.9102 0.13281 0.097656 0.33594 0.27734 0.38281 0.30078 0.046875 0.011719 0.097657 0.058594 0.13281 0.12109l1.3555 0.5625c0.74219 0.28906-0.26562-0.058594 0.3125 0.15625l1.1875 0.44531c0.86328 0.35938 1.7539 0.74219 2.832 1.3789 0.51562 0.27734 1.2109 0.75781 1.7656 1.1758 0.76953 0.625 1.3438 1.0547 2.207 2.0156 0.74219 0.82812 1.5977 2.0273 2.2812 3.4805 0.67188 1.5234 1.1172 3.2773 1.1523 4.9922 0.070312 3.4922-1.0312 5.8438-1.8828 7.3672-1.7266 2.832-3.0703 3.9375-4.2109 5.0156-1.1641 1.0312-2.1484 1.7891-3.0977 2.4961-1.668 1.2227-3.3477 2.4258-5.0039 3.625l-2.0742 1.5703-0.88672 0.70703c-0.13281 0.10938-0.51562 0.44531-0.42188 0.35938 0.34766-0.30078 0.76953-0.85156 0.81641-0.92578 0.48047-0.70703 0.13281-0.25391-0.046875 0.20312-0.22656 0.48047-0.48047 1.2109-0.71875 1.9219-0.98438 3.0234-1.8125 6.707-2.4961 10.32-2.7227 14.746-4.0078 30.012-4.3789 44.652-0.16797 7.3438-0.046875 14.594 0.45703 21.648 0.50391 7.0078 1.3789 13.871 2.9297 20.004 0.38281 1.5469 0.81641 3.0234 1.3203 4.3906 0.46875 1.2969 1.1406 2.8203 1.5 3.5742l0.66016 1.1641 0.47266 0.66016c0.33594 0.5625 0.73047 1.1172 1.1523 1.6562 0.80469 1.0781 1.7539 2.1367 2.7617 3.1328 4.043 4.043 9.3125 7.3906 14.93 10.141 11.34 5.4609 23.879 8.6992 36.121 10.883 12.324 2.1836 24.457 3.2383 36.312 3.5508 6.0703 0.17969 12.227 0.49219 18.133 1.1406 5.9414 0.66016 11.723 1.5352 17.352 2.6523 22.523 4.4531 42.254 12.793 58.285 22.848 16.043 10.066 28.453 21.719 37.922 32.762 9.4922 11.062 16.176 21.504 21.035 30.203 4.8711 8.7344 7.8359 15.77 9.7305 20.555 1.8555 4.7773 2.5742 7.3359 2.5742 7.3359z"/>
  <path d="m779.4 350.04c24.852 18.961 37.656 47.566 35.953 80.676-3.8281 55.645-79.871 126.3-150.89 188.29-8.4961 7.4141-23.258 20.113-28.355 24.742-5.9023-5.3398-23.074-20.652-33.73-29.688-71.293-60.359-147.59-129.25-151.33-183.1-1.7031-33.371 11.102-61.992 35.965-80.941 26.461-20.219 64.117-26.398 95.879-15.926 21.371 7.1523 39.012 20.387 50.281 36.852 11.34-16.477 28.969-29.797 50.34-36.852 31.664-10.457 69.32-4.1953 95.887 15.941zm9.2188 79.047c1.5-30.48-12.973-48.203-25.488-57.684-19.691-14.93-47.594-19.586-71.207-11.797-24.254 8.0508-58.754 52.234-58.754 52.234s-34.441-44.184-58.789-52.234c-23.508-7.7773-51.516-3.1328-71.195 11.797-12.434 9.4805-26.93 27.203-25.414 57.973 3.3125 46.883 96.973 126.12 141.96 164.23 6.1562 5.1836 11.797 10.008 16.727 14.207 3.1328-2.7617 6.6367-5.7969 10.379-9.0234 44.918-39.18 138.38-120.77 141.78-169.7z"/>
 </g>
</svg>
